<svg id="Layer_1" data-name="Layer 1" xmlns="http://www.w3.org/2000/svg" width="77.56" height="60.43" viewBox="0 0 77.56 60.43">
  <g>
    <path d="M144.83,71.81a4.59,4.59,0,0,0-.47-.21,8.45,8.45,0,0,0-4.59-.44,1.25,1.25,0,0,0-1.05.84c-.41,1-.9,2-1.36,3-2.19.55-4.34,1.17-6.6,1.88,2,2.2,4,4.31,6,6.54h9.53l-3.11-3.52h-2.82l-1.89-2.09,4.45-.68A27.25,27.25,0,0,0,144.83,71.81Z" transform="translate(-110.72 -29.79)"/>
    <path d="M112.82,59.7a13.51,13.51,0,0,0,4.16,4,11.16,11.16,0,0,1,0-3.78,9.22,9.22,0,0,0,5.5,4,16.28,16.28,0,0,0,4.19.47c.51,0,.93,0,1.22,0,0,.18,0,.43-.1.73a6.56,6.56,0,0,1-.57,1.86,4.55,4.55,0,0,1-1.5,1.61,6.5,6.5,0,0,1-2.69,1.11c-.55.11-1.11.17-1.75.27l-4.53,8.92c1.36,1.52,2.73,3,4.16,4.59h12.25c-.18-.24-.37-.5-.58-.74-.62-.71-1.26-1.39-1.88-2.09a1.51,1.51,0,0,0-1.44-.52c-.76.08-1.53.08-2.3.12l-1.35-1.95,2.12-3.61,7.4-1.32a1.2,1.2,0,0,0,.56-.32.9.9,0,0,0,.25-.38c.33-.78.7-1.55,1-2.33l.28-.65c.68-.07,1.37-.17,2.07-.21A25.88,25.88,0,0,1,152,72.13l1.31.65,8-3.58,12.57,14.24h12.22l-3.8-4.25h-3.72l-7.3-9c0-1.32,0-2.44-.06-3.28a20.18,20.18,0,0,0-.33-3.2,16.2,16.2,0,0,0-.55-2,41.81,41.81,0,0,0-2.39-5.55,11.84,11.84,0,0,1-1.27-3.83,5.79,5.79,0,0,1,.59-3.81,4.6,4.6,0,0,1,3-2.19,7.88,7.88,0,0,0-1.13,1.85,7.26,7.26,0,0,0-.58,2.47,7.89,7.89,0,0,0,.84,3.57c.53,1.26.81,1.46,1.7,3.38.2.43.4.9.67,1.57A23.09,23.09,0,0,1,173.23,67a27.19,27.19,0,0,1,0,3q3,3.39,6,6.77a24.33,24.33,0,0,0,3.31-10.09A22.26,22.26,0,0,0,182.4,63a19.56,19.56,0,0,0-1.07-4.34l2.1,2.12c.35-1.9.69-3.68,1-5.47-.36-.6-.7-1.19-1.12-1.91l1.42.33c.11-.51.19-1,.3-1.44a1.41,1.41,0,0,0-.16-1.08c-.39-.73-.75-1.47-1.13-2.23a9.4,9.4,0,0,0,3.62-3.92A9,9,0,0,0,188,39a3.86,3.86,0,0,0-1.58-2.27,3.25,3.25,0,0,0-1-.35c.2.62.45,1.2.58,1.8a4.34,4.34,0,0,1-2,4.46,2.84,2.84,0,0,1-3.45-.33c1.89-.28,3.34-1.35,3.61-2.64a3.06,3.06,0,0,0-.16-1.73c-1.16-2.51-6.33-2.68-9.41-2.2A12.94,12.94,0,0,0,168.8,38,12.61,12.61,0,0,0,165,42.4a9.87,9.87,0,0,1,1.76-.39,9.16,9.16,0,0,1,3,.12,4.79,4.79,0,0,1-.68.34,13.91,13.91,0,0,0-5.08,4c-1.88,2.37-2.38,7-.91,11.82a9.91,9.91,0,0,1-3.51-4.94,9.75,9.75,0,0,1-.2-4.64,18,18,0,0,1,3.54-7.91,20.4,20.4,0,0,1,18.25-7.28,18.68,18.68,0,0,1,5.31,1.53,21,21,0,0,0-5.11-3.35c-4.2-1.93-8-2-12.57-1.94a61.06,61.06,0,0,0-9.44.81c-1.92.32-3.87.61-5.75,1.11a50.08,50.08,0,0,0-12.93,5.52,32.75,32.75,0,0,0-6.87,5.36,20.59,20.59,0,0,0-4.86,7.69c-.08.23-.15.47-.21.7a57.12,57.12,0,0,1,8.88-7.26,52.5,52.5,0,0,1,10.09-5.31,51.59,51.59,0,0,1,11-3A58.56,58.56,0,0,0,150,39a31,31,0,0,0-8,5.14,25,25,0,0,0-4.55,5.66L148.1,50A17,17,0,0,1,151,46.32a13.34,13.34,0,0,1,3.84-2.68,18.56,18.56,0,0,0-5.18,16,4.45,4.45,0,0,1-1.19-1.44,9.94,9.94,0,0,1-1-3.7c0-.24-.07-.48-.1-.72-5.15-.28-10.24.07-15.42-.49.61.68,1.22,1.35,1.84,2l-5.86-.43,1.79,2.24-5.73-.5a5.9,5.9,0,0,0,2.08,3,12.38,12.38,0,0,1-2,.09,7.28,7.28,0,0,1-5.61-2.83,11.35,11.35,0,0,1-1.83-3.39c-.07-.2-.15-.41-.26-.68a7,7,0,0,0-1.6,4,5.17,5.17,0,0,1-.5-1.21,11.92,11.92,0,0,1,.47-6.64,6.42,6.42,0,0,1,2.6-3.26,5.57,5.57,0,0,1,.6-.32,3.33,3.33,0,0,0,3.58,3.15,4.79,4.79,0,0,1-2.38,1.87,6.23,6.23,0,0,0,4.12-.68,5.24,5.24,0,0,0,2.33-4.87c-.41-2.39-2-4.49-5.14-4.33a8.52,8.52,0,0,0-6.9,4,16.53,16.53,0,0,0-2.25,5,11.77,11.77,0,0,0,1.61,10.19Zm59.81-11a5.26,5.26,0,0,1,.41-.61c0,.18,0,.44-.07.74a9.54,9.54,0,0,0,0,2.2,7.76,7.76,0,0,0,1.55,3.41,13.4,13.4,0,0,0,1.14,1.24,7,7,0,0,1,1.36,2c1,2-.42,5.06-.68,5.6v-.72a7.52,7.52,0,0,0-.85-3.73,8.88,8.88,0,0,0-1-1.47,10.88,10.88,0,0,1-2-2.86,6.63,6.63,0,0,1-.61-2.87A6.16,6.16,0,0,1,172.63,48.72Z" transform="translate(-110.72 -29.79)"/>
    <path d="M158.65,78.3c-.39.24-.8.45-1.25.7.12.07.24.14.37.2a5.7,5.7,0,0,0,2.1.58l3.42,3.66h8.91c-1-1.14-2-2.31-3.09-3.49H166.6l-6.87-7.56-7.26,3.06a4.29,4.29,0,0,0,1.39.63c.46.18.94.33,1.42.47s1,.26,1.45.37,1,.19,1.47.27,1,.11,1.55.17A3.24,3.24,0,0,1,158.65,78.3Z" transform="translate(-110.72 -29.79)"/>
    <rect y="55.09" width="77.56" height="5.33"/>
  </g>
</svg>
